<?xml version="1.0" encoding="utf-8"?>
<svg version="1.1" xmlns:xlink="http://www.w3.org/1999/xlink" width="100px" height="100px" xmlns="http://www.w3.org/2000/svg">
  <g transform="matrix(1 0 0 1 -149 -2166 )">
    <path d="M 199 2166  C 227 2166  249 2188  249 2216  C 249 2244  227 2266  199 2266  C 171 2266  149 2244  149 2216  C 149 2188  171 2166  199 2166  Z " fill-rule="nonzero" fill="#aaaaaa" stroke="none" />
    <path d="M 199 2166.5  C 226.72 2166.5  248.5 2188.28  248.5 2216  C 248.5 2243.72  226.72 2265.5  199 2265.5  C 171.28 2265.5  149.5 2243.72  149.5 2216  C 149.5 2188.28  171.28 2166.5  199 2166.5  Z " stroke-width="1" stroke="#797979" fill="none" />
  </g>
</svg>