<?xml version="1.0" encoding="utf-8"?>
<svg version="1.1" xmlns:xlink="http://www.w3.org/1999/xlink" width="203px" height="203px" xmlns="http://www.w3.org/2000/svg">
  <g transform="matrix(1 0 0 1 -2130 -2651 )">
    <path d="M 2231.5 2658  C 2284.42 2658  2326 2699.58  2326 2752.5  C 2326 2805.42  2284.42 2847  2231.5 2847  C 2178.58 2847  2137 2805.42  2137 2752.5  C 2137 2699.58  2178.58 2658  2231.5 2658  Z " fill-rule="nonzero" fill="#ffffff" stroke="none" />
    <path d="M 2231.5 2655  C 2286.1 2655  2329 2697.9  2329 2752.5  C 2329 2807.1  2286.1 2850  2231.5 2850  C 2176.9 2850  2134 2807.1  2134 2752.5  C 2134 2697.9  2176.9 2655  2231.5 2655  Z " stroke-width="8" stroke="#aaaaaa" fill="none" />
  </g>
</svg>