<?xml version="1.0" encoding="utf-8"?>
<svg version="1.1" xmlns:xlink="http://www.w3.org/1999/xlink" width="108px" height="67px" xmlns="http://www.w3.org/2000/svg">
  <g transform="matrix(1 0 0 1 -1602 -2161 )">
    <path d="M 2.689453125 46.507421875  C 0.896484375 42.372265625  0 38.0364583333333  0 33.5  C 0 28.9635416666667  0.896484375 24.627734375  2.689453125 20.492578125  C 4.482421875 16.357421875  6.8818359375 12.798046875  9.8876953125 9.814453125  C 12.8935546875 6.830859375  16.4794921875 4.44921875  20.6455078125 2.66953125  C 24.8115234375 0.889843750000001  29.1796875 0  33.75 0  L 74.25 0  C 78.8203125 0  83.1884765625 0.889843750000001  87.3544921875 2.66953125  C 91.5205078125 4.44921875  95.1064453125 6.830859375  98.1123046875 9.814453125  C 101.1181640625 12.798046875  103.517578125 16.357421875  105.310546875 20.492578125  C 107.103515625 24.627734375  108 28.9635416666667  108 33.5  C 108 38.0364583333333  107.103515625 42.372265625  105.310546875 46.507421875  C 103.517578125 50.642578125  101.1181640625 54.201953125  98.1123046875 57.185546875  C 95.1064453125 60.169140625  91.5205078125 62.55078125  87.3544921875 64.33046875  C 83.1884765625 66.11015625  78.8203125 67  74.25 67  L 33.75 67  C 29.1796875 67  24.8115234375 66.11015625  20.6455078125 64.33046875  C 16.4794921875 62.55078125  12.8935546875 60.169140625  9.8876953125 57.185546875  C 6.8818359375 54.201953125  4.482421875 50.642578125  2.689453125 46.507421875  Z M 63.7822265625 58.180078125  C 67.1044921875 59.593359375  70.59375 60.3  74.25 60.3  C 77.90625 60.3  81.3955078125 59.593359375  84.7177734375 58.180078125  C 88.0400390625 56.766796875  90.9140625 54.85625  93.33984375 52.4484375  C 95.765625 50.040625  97.6904296875 47.187890625  99.1142578125 43.890234375  C 100.5380859375 40.592578125  101.25 37.1291666666667  101.25 33.5  C 101.25 29.8708333333333  100.5380859375 26.407421875  99.1142578125 23.109765625  C 97.6904296875 19.812109375  95.765625 16.959375  93.33984375 14.5515625  C 90.9140625 12.14375  88.0400390625 10.233203125  84.7177734375 8.819921875  C 81.3955078125 7.406640625  77.90625 6.7  74.25 6.7  C 70.59375 6.7  67.1044921875 7.406640625  63.7822265625 8.819921875  C 60.4599609375 10.233203125  57.5859375 12.14375  55.16015625 14.5515625  C 52.734375 16.959375  50.8095703125 19.812109375  49.3857421875 23.109765625  C 47.9619140625 26.407421875  47.25 29.8708333333333  47.25 33.5  C 47.25 37.1291666666667  47.9619140625 40.592578125  49.3857421875 43.890234375  C 50.8095703125 47.187890625  52.734375 50.040625  55.16015625 52.4484375  C 57.5859375 54.85625  60.4599609375 56.766796875  63.7822265625 58.180078125  Z " fill-rule="nonzero" fill="#d7d7d7" stroke="none" transform="matrix(1 0 0 1 1602 2161 )" />
  </g>
</svg>