<?xml version="1.0" encoding="utf-8"?>
<svg version="1.1" xmlns:xlink="http://www.w3.org/1999/xlink" width="109px" height="68px" xmlns="http://www.w3.org/2000/svg">
  <g transform="matrix(1 0 0 1 -5106 -1919 )">
    <path d="M 2.71435546875 47.2015625  C 0.90478515625 43.0046875  0 38.6041666666667  0 34  C 0 29.3958333333333  0.90478515625 24.9953125  2.71435546875 20.7984375  C 4.52392578125 16.6015625  6.945556640625 12.9890625  9.979248046875 9.9609375  C 13.012939453125 6.9328125  16.632080078125 4.515625  20.836669921875 2.709375  C 25.041259765625 0.903125000000002  29.4498697916667 0  34.0625 0  L 74.9375 0  C 79.5501302083333 0  83.958740234375 0.903125000000002  88.163330078125 2.709375  C 92.367919921875 4.515625  95.987060546875 6.9328125  99.020751953125 9.9609375  C 102.054443359375 12.9890625  104.47607421875 16.6015625  106.28564453125 20.7984375  C 108.09521484375 24.9953125  109 29.3958333333333  109 34  C 109 38.6041666666667  108.09521484375 43.0046875  106.28564453125 47.2015625  C 104.47607421875 51.3984375  102.054443359375 55.0109375  99.020751953125 58.0390625  C 95.987060546875 61.0671875  92.367919921875 63.484375  88.163330078125 65.290625  C 83.958740234375 67.096875  79.5501302083333 68  74.9375 68  L 34.0625 68  C 29.4498697916667 68  25.041259765625 67.096875  20.836669921875 65.290625  C 16.632080078125 63.484375  13.012939453125 61.0671875  9.979248046875 58.0390625  C 6.945556640625 55.0109375  4.52392578125 51.3984375  2.71435546875 47.2015625  Z M 64.372802734375 59.0484375  C 67.725830078125 60.4828125  71.2473958333333 61.2  74.9375 61.2  C 78.6276041666667 61.2  82.149169921875 60.4828125  85.502197265625 59.0484375  C 88.855224609375 57.6140625  91.755859375 55.675  94.2041015625 53.23125  C 96.65234375 50.7875  98.594970703125 47.8921875  100.031982421875 44.5453125  C 101.468994140625 41.1984375  102.1875 37.6833333333333  102.1875 34  C 102.1875 30.3166666666667  101.468994140625 26.8015625  100.031982421875 23.4546875  C 98.594970703125 20.1078125  96.65234375 17.2125  94.2041015625 14.76875  C 91.755859375 12.325  88.855224609375 10.3859375  85.502197265625 8.9515625  C 82.149169921875 7.5171875  78.6276041666667 6.8  74.9375 6.8  C 71.2473958333333 6.8  67.725830078125 7.5171875  64.372802734375 8.9515625  C 61.019775390625 10.3859375  58.119140625 12.325  55.6708984375 14.76875  C 53.22265625 17.2125  51.280029296875 20.1078125  49.843017578125 23.4546875  C 48.406005859375 26.8015625  47.6875 30.3166666666667  47.6875 34  C 47.6875 37.6833333333333  48.406005859375 41.1984375  49.843017578125 44.5453125  C 51.280029296875 47.8921875  53.22265625 50.7875  55.6708984375 53.23125  C 58.119140625 55.675  61.019775390625 57.6140625  64.372802734375 59.0484375  Z " fill-rule="nonzero" fill="#02a7f0" stroke="none" transform="matrix(1 0 0 1 5106 1919 )" />
  </g>
</svg>