<?xml version="1.0" encoding="utf-8"?>
<svg version="1.1" xmlns:xlink="http://www.w3.org/1999/xlink" width="92px" height="92px" xmlns="http://www.w3.org/2000/svg">
  <g transform="matrix(1 0 0 1 -2906 -2288 )">
    <path d="M 90.1704545454545 35.2840909090909  C 91.3901515151515 36.5037878787879  92 37.9848484848485  92 39.7272727272727  L 92 52.2727272727273  C 92 54.0151515151515  91.3901515151515 55.4962121212121  90.1704545454545 56.7159090909091  C 88.9507575757576 57.9356060606061  87.469696969697 58.5454545454545  85.7272727272727 58  L 58 58  L 58 85.7272727272727  C 58.5454545454545 87.469696969697  57.9356060606061 88.9507575757576  56.7159090909091 90.1704545454545  C 55.4962121212121 91.3901515151515  54.0151515151515 92  52.2727272727273 92  L 39.7272727272727 92  C 37.9848484848485 92  36.5037878787879 91.3901515151515  35.2840909090909 90.1704545454545  C 34.0643939393939 88.9507575757576  33.4545454545455 87.469696969697  34 85.7272727272727  L 34 58  L 6.27272727272727 58  C 4.53030303030303 58.5454545454545  3.04924242424242 57.9356060606061  1.82954545454545 56.7159090909091  C 0.609848484848485 55.4962121212121  0 54.0151515151515  0 52.2727272727273  L 0 39.7272727272727  C 0 37.9848484848485  0.609848484848485 36.5037878787879  1.82954545454545 35.2840909090909  C 3.04924242424242 34.0643939393939  4.53030303030303 33.4545454545455  6.27272727272727 34  L 34 34  L 34 6.27272727272728  C 33.4545454545455 4.53030303030303  34.0643939393939 3.04924242424242  35.2840909090909 1.82954545454546  C 36.5037878787879 0.609848484848482  37.9848484848485 0  39.7272727272727 0  L 52.2727272727273 0  C 54.0151515151515 0  55.4962121212121 0.609848484848482  56.7159090909091 1.82954545454546  C 57.9356060606061 3.04924242424242  58.5454545454545 4.53030303030303  58 6.27272727272728  L 58 34  L 85.7272727272727 34  C 87.469696969697 33.4545454545455  88.9507575757576 34.0643939393939  90.1704545454545 35.2840909090909  Z " fill-rule="nonzero" fill="#000000" stroke="none" transform="matrix(1 0 0 1 2906 2288 )" />
  </g>
</svg>