<?xml version="1.0" encoding="utf-8"?>
<svg version="1.1" xmlns:xlink="http://www.w3.org/1999/xlink" width="73px" height="73px" xmlns="http://www.w3.org/2000/svg">
  <g transform="matrix(1 0 0 1 -3094 -1468 )">
    <path d="M 3130.5 1468  C 3150.94 1468  3167 1484.06  3167 1504.5  C 3167 1524.94  3150.94 1541  3130.5 1541  C 3110.06 1541  3094 1524.94  3094 1504.5  C 3094 1484.06  3110.06 1468  3130.5 1468  Z " fill-rule="nonzero" fill="#ffffff" stroke="none" />
    <path d="M 3130.5 1468.5  C 3150.66 1468.5  3166.5 1484.34  3166.5 1504.5  C 3166.5 1524.66  3150.66 1540.5  3130.5 1540.5  C 3110.34 1540.5  3094.5 1524.66  3094.5 1504.5  C 3094.5 1484.34  3110.34 1468.5  3130.5 1468.5  Z " stroke-width="1" stroke="#797979" fill="none" />
  </g>
</svg>