<?xml version="1.0" encoding="utf-8"?>
<svg version="1.1" xmlns:xlink="http://www.w3.org/1999/xlink" width="64px" height="64px" xmlns="http://www.w3.org/2000/svg">
  <g transform="matrix(1 0 0 1 -3100 -1167 )">
    <path d="M 3132 1167  C 3149.92 1167  3164 1181.08  3164 1199  C 3164 1216.92  3149.92 1231  3132 1231  C 3114.08 1231  3100 1216.92  3100 1199  C 3100 1181.08  3114.08 1167  3132 1167  Z " fill-rule="nonzero" fill="#ffffff" stroke="none" />
    <path d="M 3132 1167.5  C 3149.64 1167.5  3163.5 1181.36  3163.5 1199  C 3163.5 1216.64  3149.64 1230.5  3132 1230.5  C 3114.36 1230.5  3100.5 1216.64  3100.5 1199  C 3100.5 1181.36  3114.36 1167.5  3132 1167.5  Z " stroke-width="1" stroke="#797979" fill="none" />
  </g>
</svg>