<?xml version="1.0" encoding="utf-8"?>
<svg version="1.1" xmlns:xlink="http://www.w3.org/1999/xlink" width="810px" height="5418px" xmlns="http://www.w3.org/2000/svg">
  <g transform="matrix(1 0 0 1 -1309 -1344 )">
    <path d="M 773.999999999995 20.6666666666652  L 0.666666666665151 5387  L 274 5387  L 274 1  L 780.666666666665 1  L 773.999999999995 20.6666666666652  Z " fill-rule="nonzero" fill="#ffffff" stroke="none" transform="matrix(1 0 0 1 1316 1366 )" />
    <path d="M 0.666666666665151 5387  L 274 5387  L 274 1  L 780.666666666665 1  L 778.494549936471 7.40774435407073  " stroke-width="14" stroke="#797979" fill="none" transform="matrix(1 0 0 1 1316 1366 )" />
    <path d="M 777.049873171452 2.1695408108718  C 771.80316804806 2.1695408108718  767.549873171452 6.42283568747926  767.549873171452 11.6695408108718  C 767.549873171452 16.9162459342643  771.80316804806 21.1695408108718  777.049873171452 21.1695408108718  C 782.296578294845 21.1695408108718  786.549873171452 16.9162459342643  786.549873171452 11.6695408108718  C 786.549873171452 6.42283568747926  782.296578294845 2.1695408108718  777.049873171452 2.1695408108718  Z " fill-rule="nonzero" fill="#797979" stroke="none" transform="matrix(1 0 0 1 1316 1366 )" />
  </g>
</svg>