<?xml version="1.0" encoding="utf-8"?>
<svg version="1.1" xmlns:xlink="http://www.w3.org/1999/xlink" width="58px" height="58px" xmlns="http://www.w3.org/2000/svg">
  <g transform="matrix(1 0 0 1 -7685 -14932 )">
    <path d="M 7714 14932  C 7730.24 14932  7743 14944.76  7743 14961  C 7743 14977.24  7730.24 14990  7714 14990  C 7697.76 14990  7685 14977.24  7685 14961  C 7685 14944.76  7697.76 14932  7714 14932  Z " fill-rule="nonzero" fill="#ffffff" stroke="none" />
    <path d="M 7714 14932.5  C 7729.96 14932.5  7742.5 14945.04  7742.5 14961  C 7742.5 14976.96  7729.96 14989.5  7714 14989.5  C 7698.04 14989.5  7685.5 14976.96  7685.5 14961  C 7685.5 14945.04  7698.04 14932.5  7714 14932.5  Z " stroke-width="1" stroke="#797979" fill="none" />
  </g>
</svg>