<?xml version="1.0" encoding="utf-8"?>
<svg version="1.1" xmlns:xlink="http://www.w3.org/1999/xlink" width="58px" height="58px" xmlns="http://www.w3.org/2000/svg">
  <g transform="matrix(1 0 0 1 -5557 -17892 )">
    <path d="M 5586 17892  C 5602.24 17892  5615 17904.76  5615 17921  C 5615 17937.24  5602.24 17950  5586 17950  C 5569.76 17950  5557 17937.24  5557 17921  C 5557 17904.76  5569.76 17892  5586 17892  Z " fill-rule="nonzero" fill="#02a7f0" stroke="none" />
    <path d="M 5586 17892.5  C 5601.96 17892.5  5614.5 17905.04  5614.5 17921  C 5614.5 17936.96  5601.96 17949.5  5586 17949.5  C 5570.04 17949.5  5557.5 17936.96  5557.5 17921  C 5557.5 17905.04  5570.04 17892.5  5586 17892.5  Z " stroke-width="1" stroke="#797979" fill="none" />
  </g>
</svg>